<svg xmlns="http://www.w3.org/2000/svg" xmlns:xlink="http://www.w3.org/1999/xlink" width="500" zoomAndPan="magnify" viewBox="0 0 375 374.999991" height="500" preserveAspectRatio="xMidYMid meet" version="1.0"><defs><clipPath id="f7774a3ea1"><path d="M 43 49.214844 L 332.386719 49.214844 L 332.386719 325.964844 L 43 325.964844 Z M 43 49.214844 " clip-rule="nonzero"/></clipPath></defs><path fill="#72c999" d="M 327.710938 278.945312 C 327.105469 278.613281 326.328125 278.28125 325.332031 278.058594 C 319.355469 276.125 313.988281 273.746094 309.34375 271.035156 C 311.277344 263.234375 310.667969 258.585938 307.570312 257.039062 C 304.25 254.992188 298.9375 254.328125 291.578125 255.046875 C 290.308594 253.222656 289.367188 251.726562 288.648438 250.566406 C 295.785156 241.769531 297.5 234.855469 293.683594 229.878906 C 291.46875 227.332031 287.761719 225.285156 282.503906 223.738281 C 280.511719 223.128906 278.246094 222.632812 275.808594 222.132812 C 275.476562 220.917969 275.089844 219.699219 274.757812 218.425781 C 286.542969 203.824219 290.03125 193.425781 285.273438 187.230469 C 282.394531 183.355469 275.976562 179.707031 266.070312 176.277344 C 265.960938 175.777344 265.851562 175.28125 265.738281 174.839844 C 265.683594 174.617188 265.628906 174.449219 265.574219 174.230469 C 265.351562 173.125 265.128906 172.015625 264.855469 170.855469 C 265.128906 170.578125 265.351562 170.355469 265.628906 170.082031 C 272.546875 163 276.417969 157.523438 277.195312 153.652344 C 279.183594 146.40625 273.875 140.429688 261.367188 135.730469 C 260.316406 135.34375 259.210938 134.953125 258.046875 134.566406 C 257.714844 133.238281 257.382812 131.914062 256.996094 130.585938 C 257.769531 129.644531 258.546875 128.757812 259.210938 127.875 C 261.480469 124.941406 263.304688 122.066406 264.632812 119.246094 C 266.125 116.089844 267.011719 112.992188 267.289062 110.007812 C 268.117188 101.820312 259.929688 97.285156 242.664062 96.507812 C 241.835938 96.453125 240.949219 96.398438 240.007812 96.398438 C 240.121094 95.570312 240.285156 94.738281 240.398438 93.910156 C 241.335938 86.277344 241.226562 80.023438 240.066406 75.269531 C 239.566406 72.558594 238.625 70.457031 237.242188 69.015625 C 233.703125 64.589844 225.84375 65.089844 213.617188 70.566406 C 211.789062 71.339844 209.632812 72.390625 207.253906 73.71875 L 207.195312 73.71875 C 207.195312 73.71875 207.140625 73.71875 207.140625 73.664062 C 206.035156 73.332031 204.984375 73 203.820312 72.722656 C 200.613281 59.113281 196.296875 52.367188 190.984375 52.421875 C 182.464844 52.367188 174.164062 58.0625 166.027344 69.460938 C 133.4375 74.105469 114.015625 90.039062 107.820312 117.308594 C 105.21875 123.945312 102.949219 131.304688 101.011719 139.378906 C 89.171875 149.503906 85.742188 161.121094 90.609375 174.339844 C 82.699219 165.433594 77.605469 160.234375 75.339844 158.851562 C 73.070312 157.414062 70.691406 156.472656 68.144531 156.085938 C 65.269531 155.585938 63.054688 155.976562 61.503906 157.359375 C 60.621094 158.078125 60.011719 159.074219 59.679688 160.34375 C 59.402344 161.507812 59.347656 162.667969 59.625 163.886719 C 59.734375 164.273438 59.84375 164.660156 60.011719 165.101562 C 57.519531 166.042969 55.308594 167.535156 53.480469 169.582031 C 51.710938 171.574219 50.824219 173.785156 50.882812 176.332031 C 50.882812 178.488281 51.546875 180.757812 52.816406 183.191406 C 53.703125 184.851562 55.085938 186.898438 56.96875 189.332031 C 62.335938 196.023438 68.253906 202.109375 74.785156 207.695312 C 78.328125 210.738281 83.804688 214.609375 91.164062 219.367188 C 93.210938 220.695312 95.425781 222.1875 97.75 223.738281 C 102.394531 226.945312 107.597656 230.597656 113.296875 234.855469 C 114.570312 259.085938 118.664062 282.871094 125.636719 306.382812 C 125.859375 307.046875 126.023438 307.707031 126.246094 308.371094 C 118.609375 315.730469 119.164062 320.101562 127.960938 321.425781 C 137.257812 322.476562 146.441406 322.148438 155.515625 320.597656 C 161.4375 319.65625 164.480469 316.78125 164.589844 311.859375 L 165.089844 298.914062 C 166.25 299.078125 167.46875 299.191406 168.683594 299.300781 C 181.300781 300.628906 194.136719 300.519531 207.085938 299.023438 C 207.308594 299.023438 207.527344 298.96875 207.75 298.96875 C 210.847656 298.582031 212.894531 298.304688 213.949219 298.140625 C 215.332031 297.917969 216.714844 297.695312 218.042969 297.476562 C 220.53125 301.179688 221.472656 305.496094 220.976562 310.308594 C 212.066406 319.878906 220.3125 323.53125 245.652344 321.316406 C 256 320.652344 261.148438 315.839844 261.089844 306.824219 C 261.3125 304.722656 261.421875 302.453125 261.480469 300.019531 C 288.371094 301.292969 308.789062 297.144531 322.675781 287.574219 C 328.820312 283.371094 330.480469 280.546875 327.710938 278.945312 Z M 327.710938 278.945312 " fill-opacity="1" fill-rule="nonzero"/><path fill="#f7f7ae" d="M 274.648438 218.371094 C 286.433594 203.769531 289.921875 193.367188 285.160156 187.171875 C 282.285156 183.300781 275.867188 179.652344 265.960938 176.222656 C 266.957031 180.644531 268.230469 187.394531 269.777344 196.523438 C 271.105469 203.878906 272.710938 211.125 274.648438 218.371094 Z M 307.460938 256.984375 C 304.140625 254.9375 298.828125 254.273438 291.46875 254.992188 C 295.730469 261.296875 301.707031 266.609375 309.230469 270.980469 C 311.113281 263.179688 310.558594 258.53125 307.460938 256.984375 Z M 293.570312 229.765625 C 291.359375 227.222656 287.652344 225.175781 282.394531 223.628906 C 280.402344 223.019531 278.132812 222.519531 275.699219 222.023438 C 275.867188 222.578125 276.03125 223.074219 276.199219 223.628906 C 278.246094 230.265625 280.789062 236.074219 283.667969 241.109375 C 284.332031 242.433594 285.050781 243.761719 285.769531 245.089844 C 286.601562 246.972656 287.484375 248.742188 288.535156 250.511719 C 295.675781 241.714844 297.390625 234.800781 293.570312 229.765625 Z M 172.117188 218.871094 C 159.277344 217.375 149.042969 218.980469 141.515625 223.628906 C 134.269531 228.050781 129.507812 235.300781 127.128906 245.367188 C 120.988281 271.699219 129.675781 289.066406 153.246094 297.476562 C 155.128906 297.53125 157.398438 297.75 160.109375 298.140625 C 161.769531 298.414062 163.429688 298.636719 165.089844 298.859375 C 166.25 299.023438 167.46875 299.136719 168.683594 299.246094 C 181.300781 300.574219 194.136719 300.460938 207.085938 298.96875 C 207.308594 298.96875 207.527344 298.914062 207.75 298.914062 C 214.445312 296.535156 216.9375 286.742188 215.21875 269.652344 C 213.449219 252.117188 208.191406 239.003906 199.449219 230.429688 C 196.960938 227.722656 194.027344 225.507812 190.597656 223.738281 C 185.507812 220.972656 179.363281 219.421875 172.117188 218.871094 Z M 258.046875 134.566406 C 259.210938 139.160156 260.09375 143.972656 260.816406 149.003906 C 262.03125 156.75 263.359375 163.996094 264.855469 170.800781 C 265.128906 170.523438 265.351562 170.300781 265.628906 170.027344 C 272.546875 162.945312 276.417969 157.46875 277.195312 153.597656 C 279.183594 146.351562 273.875 140.375 261.367188 135.671875 C 260.316406 135.285156 259.210938 134.898438 258.046875 134.566406 Z M 203.933594 72.777344 C 200.722656 59.171875 196.40625 52.421875 191.09375 52.476562 C 182.574219 52.421875 174.273438 58.121094 166.140625 69.515625 C 170.070312 69.183594 174.164062 69.070312 178.367188 69.183594 L 178.535156 69.183594 C 187.664062 69.460938 196.1875 70.675781 203.933594 72.777344 Z M 240.398438 93.910156 C 241.335938 86.277344 241.226562 80.023438 240.066406 75.269531 C 239.566406 72.558594 238.625 70.457031 237.242188 69.015625 C 233.703125 64.589844 225.84375 65.089844 213.617188 70.566406 C 211.789062 71.339844 209.632812 72.390625 207.253906 73.71875 C 211.789062 75.101562 215.996094 76.761719 220.035156 78.753906 C 220.753906 79.140625 221.472656 79.582031 222.136719 80.023438 C 228.941406 84.5625 234.917969 90.039062 240.007812 96.398438 C 240.175781 95.515625 240.285156 94.683594 240.398438 93.910156 Z M 242.664062 96.507812 C 241.835938 96.453125 240.949219 96.398438 240.007812 96.398438 C 245.375 103.09375 249.804688 110.835938 253.289062 119.578125 C 253.84375 121.015625 254.394531 122.507812 254.949219 124 C 255.667969 126.105469 256.332031 128.316406 256.941406 130.527344 C 257.714844 129.589844 258.492188 128.703125 259.15625 127.875 C 261.421875 124.941406 263.25 122.066406 264.578125 119.246094 C 266.070312 116.089844 266.957031 112.992188 267.234375 110.007812 C 268.117188 101.820312 259.929688 97.285156 242.664062 96.507812 Z M 242.664062 96.507812 " fill-opacity="1" fill-rule="nonzero"/><path fill="#404835" d="M 132.941406 168.699219 C 134.15625 177.546875 137.808594 184.351562 143.839844 189 C 157.839844 174.671875 173 173.621094 189.433594 185.734375 C 193.199219 182.085938 196.628906 177.382812 199.617188 171.628906 C 201.828125 167.371094 199.617188 165.710938 193.085938 166.707031 C 178.367188 168.972656 161.214844 167.921875 141.628906 163.554688 C 135.042969 161.785156 132.164062 163.496094 132.941406 168.699219 Z M 132.941406 168.699219 " fill-opacity="1" fill-rule="nonzero"/><path fill="#e29e80" d="M 143.839844 189 C 147.824219 192.097656 152.914062 194.199219 159.167969 195.359375 C 170.511719 197.460938 180.582031 194.253906 189.433594 185.734375 C 173.054688 173.621094 157.839844 174.726562 143.839844 189 Z M 143.839844 189 " fill-opacity="1" fill-rule="nonzero"/><g clip-path="url(#f7774a3ea1)"><path fill="#404835" d="M 138.859375 325.132812 C 135.097656 325.132812 131.390625 324.914062 127.628906 324.523438 C 127.574219 324.523438 127.574219 324.523438 127.515625 324.523438 C 125.523438 324.25 119.492188 323.308594 118 318.660156 C 116.726562 314.625 119.660156 310.53125 122.59375 307.433594 L 122.539062 307.265625 C 115.675781 284.144531 111.527344 260.359375 110.144531 236.515625 C 104.941406 232.699219 100.128906 229.324219 95.867188 226.394531 C 93.542969 224.84375 91.386719 223.351562 89.335938 222.023438 C 81.921875 217.210938 76.277344 213.226562 72.625 210.128906 C 65.988281 204.433594 59.84375 198.125 54.421875 191.324219 C 52.375 188.667969 50.9375 186.511719 49.941406 184.628906 C 48.445312 181.808594 47.671875 178.988281 47.671875 176.332031 C 47.617188 173.011719 48.777344 169.96875 51.101562 167.371094 C 52.652344 165.65625 54.367188 164.273438 56.304688 163.222656 C 56.191406 161.949219 56.304688 160.730469 56.582031 159.515625 C 57.078125 157.632812 58.074219 156.085938 59.402344 154.925781 C 61.671875 152.933594 64.824219 152.269531 68.644531 152.933594 C 71.574219 153.375 74.398438 154.480469 77.054688 156.140625 C 78.160156 156.859375 80.207031 158.464844 85.242188 163.71875 C 85.078125 154.148438 89.335938 145.410156 98.136719 137.664062 C 100.015625 129.976562 102.230469 122.785156 104.71875 116.367188 C 111.195312 88.324219 131.226562 71.5625 164.203125 66.472656 C 172.667969 55.023438 181.632812 49.214844 190.875 49.214844 C 190.929688 49.214844 190.984375 49.214844 191.09375 49.214844 C 197.84375 49.214844 202.882812 56.074219 206.476562 70.125 C 206.589844 70.179688 206.699219 70.179688 206.863281 70.234375 C 208.855469 69.183594 210.683594 68.296875 212.289062 67.632812 C 226.066406 61.492188 235.03125 61.21875 239.621094 66.914062 C 241.335938 68.796875 242.5 71.339844 243.109375 74.546875 C 244.324219 79.527344 244.492188 85.667969 243.605469 93.300781 C 255.78125 93.964844 263.636719 96.507812 267.621094 101.046875 C 269.835938 103.589844 270.773438 106.6875 270.441406 110.226562 C 270.109375 113.601562 269.113281 117.03125 267.511719 120.515625 C 266.070312 123.558594 264.136719 126.65625 261.699219 129.753906 C 261.3125 130.253906 260.871094 130.75 260.484375 131.25 C 260.539062 131.46875 260.59375 131.746094 260.703125 131.96875 C 261.3125 132.1875 261.867188 132.410156 262.476562 132.574219 C 276.695312 137.886719 282.726562 145.1875 280.292969 154.261719 C 279.351562 158.683594 275.421875 164.4375 268.339844 171.742188 C 268.449219 172.292969 268.5625 172.847656 268.671875 173.398438 C 268.671875 173.511719 268.726562 173.566406 268.726562 173.675781 C 278.410156 177.160156 284.609375 180.921875 287.761719 185.128906 C 293.40625 192.484375 290.253906 203.601562 278.1875 218.980469 C 278.1875 219.035156 278.246094 219.089844 278.246094 219.203125 C 280.070312 219.589844 281.785156 220.03125 283.335938 220.472656 C 289.199219 222.246094 293.351562 224.566406 296.007812 227.609375 C 296.0625 227.664062 296.117188 227.722656 296.171875 227.777344 C 300.65625 233.695312 299.4375 241.382812 292.464844 250.621094 C 292.632812 250.898438 292.851562 251.230469 293.074219 251.5625 C 300.15625 251.066406 305.414062 251.949219 309.066406 254.105469 C 314.652344 256.984375 313.878906 264.671875 312.9375 269.265625 C 316.867188 271.367188 321.347656 273.246094 326.164062 274.851562 C 327.378906 275.128906 328.433594 275.515625 329.261719 276.011719 C 331.695312 277.394531 332.140625 279.386719 332.140625 280.4375 C 332.25 283.425781 329.980469 286.246094 324.558594 290.007812 C 310.667969 299.523438 290.527344 303.949219 264.632812 303.171875 C 264.578125 304.445312 264.464844 305.664062 264.355469 306.824219 C 264.300781 317.335938 257.769531 323.585938 245.929688 324.304688 C 226.839844 325.964844 217.601562 324.46875 215 319.214844 C 213.558594 316.226562 214.5 312.742188 217.929688 308.761719 C 218.097656 305.828125 217.65625 303.171875 216.4375 300.738281 C 215.773438 300.851562 215.164062 300.960938 214.5 301.070312 C 213.394531 301.238281 211.292969 301.511719 208.191406 301.902344 C 208.136719 301.902344 208.082031 301.902344 208.027344 301.902344 L 207.417969 301.957031 C 194.304688 303.449219 181.136719 303.503906 168.351562 302.234375 C 168.296875 302.234375 168.242188 302.234375 168.1875 302.234375 L 167.800781 311.746094 C 167.6875 315.453125 166.027344 321.925781 156.015625 323.53125 C 150.371094 324.636719 144.617188 325.132812 138.859375 325.132812 Z M 128.347656 318.109375 C 137.257812 319.105469 146.21875 318.828125 154.960938 317.277344 C 160.550781 316.394531 161.324219 313.90625 161.382812 311.636719 L 161.769531 301.570312 C 161.050781 301.457031 160.328125 301.347656 159.609375 301.238281 C 157.121094 300.851562 154.90625 300.683594 153.191406 300.628906 C 151.421875 300.574219 150.039062 299.136719 150.039062 297.363281 C 150.09375 295.59375 151.53125 294.15625 153.300781 294.210938 C 155.292969 294.265625 157.730469 294.488281 160.550781 294.875 C 162.210938 295.152344 163.871094 295.375 165.476562 295.539062 C 166.582031 295.707031 167.800781 295.816406 168.960938 295.925781 C 181.355469 297.199219 194.027344 297.144531 206.699219 295.707031 C 206.753906 295.707031 206.753906 295.707031 206.808594 295.707031 L 207.417969 295.648438 C 210.460938 295.261719 212.507812 294.984375 213.503906 294.820312 C 214.832031 294.597656 216.214844 294.378906 217.542969 294.15625 C 218.761719 293.933594 220.035156 294.488281 220.753906 295.539062 C 223.632812 299.910156 224.792969 304.941406 224.183594 310.53125 C 224.128906 311.195312 223.796875 311.859375 223.355469 312.355469 C 220.644531 315.289062 220.753906 316.449219 220.753906 316.449219 C 220.753906 316.449219 222.746094 319.933594 245.375 317.941406 C 245.375 317.941406 245.433594 317.941406 245.433594 317.941406 C 256.5 317.222656 257.9375 311.582031 257.882812 306.65625 C 257.882812 306.546875 257.882812 306.4375 257.882812 306.324219 C 258.101562 304.335938 258.214844 302.175781 258.214844 299.855469 C 258.214844 296.367188 258.492188 292.9375 259.042969 289.621094 C 259.320312 287.851562 260.980469 286.6875 262.75 286.964844 C 264.523438 287.242188 265.683594 288.902344 265.40625 290.671875 C 265.074219 292.664062 264.855469 294.710938 264.742188 296.757812 C 289.257812 297.53125 308.125 293.492188 320.851562 284.753906 C 323.285156 283.09375 324.503906 281.929688 325.113281 281.210938 C 324.945312 281.15625 324.722656 281.101562 324.503906 281.046875 C 324.390625 281.046875 324.335938 280.992188 324.226562 280.992188 C 318.085938 279 312.441406 276.511719 307.625 273.6875 C 299.660156 269.097656 293.351562 263.398438 288.8125 256.707031 C 287.539062 254.824219 286.542969 253.277344 285.769531 252.058594 C 284.71875 250.289062 283.777344 248.410156 282.949219 246.472656 C 282.230469 245.199219 281.566406 243.929688 280.902344 242.601562 C 277.914062 237.402344 275.3125 231.316406 273.152344 224.511719 C 272.988281 224.015625 272.820312 223.460938 272.65625 222.910156 C 272.65625 222.910156 272.65625 222.851562 272.65625 222.851562 C 272.324219 221.636719 271.9375 220.363281 271.605469 219.089844 C 269.667969 211.84375 268.007812 204.378906 266.734375 196.964844 C 265.1875 187.894531 263.914062 181.144531 262.917969 176.773438 C 262.808594 176.277344 262.695312 175.832031 262.640625 175.390625 C 262.585938 175.113281 262.53125 174.894531 262.476562 174.617188 C 262.253906 173.621094 262.03125 172.515625 261.753906 171.410156 C 261.753906 171.410156 261.753906 171.351562 261.753906 171.351562 C 260.316406 164.550781 258.933594 157.136719 257.714844 149.390625 C 256.996094 144.414062 256.113281 139.710938 255.003906 135.230469 C 254.671875 133.902344 254.339844 132.632812 253.953125 131.359375 C 253.34375 129.203125 252.679688 127.097656 252.015625 125.054688 C 251.519531 123.613281 250.964844 122.175781 250.410156 120.738281 C 247.09375 112.328125 242.777344 104.808594 237.628906 98.390625 C 232.761719 92.304688 227.0625 87.050781 220.585938 82.734375 C 219.921875 82.347656 219.316406 81.960938 218.652344 81.574219 C 214.832031 79.691406 210.738281 78.089844 206.476562 76.761719 C 206.367188 76.761719 206.3125 76.707031 206.199219 76.652344 C 205.261719 76.375 204.265625 76.097656 203.269531 75.820312 C 203.269531 75.820312 203.214844 75.820312 203.214844 75.820312 C 195.742188 73.828125 187.441406 72.667969 178.589844 72.28125 L 178.367188 72.28125 C 178.3125 72.28125 178.3125 72.28125 178.257812 72.28125 C 174.21875 72.171875 170.234375 72.28125 166.472656 72.613281 C 135.097656 77.09375 116.949219 91.917969 110.972656 117.972656 C 110.917969 118.136719 110.917969 118.304688 110.808594 118.414062 C 108.261719 124.886719 106.046875 132.1875 104.167969 140.042969 C 104 140.707031 103.667969 141.316406 103.117188 141.757812 C 92.324219 150.996094 89.226562 161.230469 93.597656 173.125 C 93.984375 174.117188 94.429688 175.167969 94.925781 176.222656 C 97.582031 181.917969 102.726562 188.167969 110.199219 194.917969 C 111.527344 196.078125 111.636719 198.125 110.417969 199.453125 C 109.257812 200.78125 107.210938 200.890625 105.882812 199.675781 C 97.75 192.375 92.105469 185.402344 89.117188 178.929688 C 88.617188 177.9375 88.175781 176.882812 87.789062 175.890625 C 77.996094 164.882812 74.730469 162.113281 73.621094 161.394531 C 71.742188 160.179688 69.75 159.40625 67.648438 159.074219 C 67.589844 159.074219 67.589844 159.074219 67.535156 159.074219 C 65.710938 158.742188 64.328125 158.90625 63.550781 159.570312 C 63.164062 159.902344 62.886719 160.34375 62.722656 160.953125 C 62.554688 161.5625 62.554688 162.28125 62.722656 163 C 62.777344 163.222656 62.832031 163.5 62.945312 163.773438 C 63.386719 164.992188 64.214844 166.429688 65.433594 168.089844 C 66.484375 169.527344 66.152344 171.519531 64.769531 172.570312 C 63.332031 173.621094 61.339844 173.289062 60.289062 171.90625 C 59.625 170.964844 59.015625 170.082031 58.515625 169.195312 C 57.519531 169.804688 56.636719 170.578125 55.804688 171.519531 C 54.53125 172.902344 53.980469 174.339844 53.980469 176.109375 C 53.980469 177.769531 54.53125 179.59375 55.527344 181.53125 C 56.304688 183.023438 57.632812 184.960938 59.347656 187.230469 C 64.492188 193.644531 70.359375 199.730469 76.722656 205.097656 C 80.152344 208.027344 85.519531 211.84375 92.710938 216.492188 C 94.816406 217.820312 97.027344 219.3125 99.351562 220.917969 C 104.054688 224.125 109.3125 227.886719 115.011719 232.089844 C 115.785156 232.644531 116.285156 233.527344 116.285156 234.523438 C 117.558594 258.367188 121.652344 282.152344 128.457031 305.273438 L 129.066406 307.265625 C 129.398438 308.429688 129.066406 309.644531 128.238281 310.53125 C 123.699219 314.898438 123.867188 316.613281 123.867188 316.613281 C 124.085938 316.671875 124.695312 317.554688 128.347656 318.109375 Z M 297.832031 257.925781 C 300.433594 260.800781 303.476562 263.398438 306.960938 265.777344 C 307.40625 262.074219 306.851562 260.246094 306.023438 259.859375 C 305.910156 259.804688 305.855469 259.75 305.746094 259.695312 C 304.472656 258.917969 302.09375 258.089844 297.832031 257.925781 Z M 280.511719 226.449219 C 282.230469 231.316406 284.21875 235.6875 286.488281 239.558594 C 286.542969 239.613281 286.542969 239.667969 286.601562 239.722656 C 287.265625 240.996094 287.929688 242.324219 288.648438 243.542969 C 288.703125 243.652344 288.757812 243.707031 288.757812 243.816406 C 288.867188 244.039062 288.925781 244.261719 289.035156 244.480469 C 292.574219 239.0625 293.296875 234.800781 291.082031 231.8125 C 289.257812 229.765625 286.046875 228.054688 281.507812 226.726562 C 281.175781 226.613281 280.84375 226.503906 280.511719 226.449219 Z M 270.332031 181.253906 C 271.105469 185.183594 271.992188 190.105469 272.988281 195.96875 C 273.875 201.058594 274.925781 206.148438 276.140625 211.179688 C 283.558594 200.835938 285.824219 193.257812 282.671875 189.109375 C 281.234375 187.171875 277.914062 184.40625 270.332031 181.253906 Z M 262.417969 139.546875 C 263.027344 142.476562 263.527344 145.464844 263.96875 148.507812 C 264.796875 153.871094 265.738281 159.128906 266.734375 164.105469 C 271.992188 158.1875 273.652344 154.8125 274.039062 152.933594 C 274.039062 152.878906 274.09375 152.820312 274.09375 152.710938 C 274.59375 150.886719 276.140625 145.296875 262.417969 139.546875 Z M 246.648438 99.996094 C 250.414062 105.582031 253.621094 111.722656 256.277344 118.414062 C 256.886719 119.910156 257.4375 121.457031 257.992188 123.007812 C 258.101562 123.28125 258.160156 123.503906 258.269531 123.78125 C 259.652344 121.789062 260.816406 119.796875 261.753906 117.863281 C 263.082031 115.097656 263.859375 112.328125 264.132812 109.675781 C 264.300781 107.90625 263.914062 106.523438 262.863281 105.304688 C 261.148438 103.3125 256.941406 100.933594 246.648438 99.996094 Z M 215.550781 73.222656 C 217.601562 74.050781 219.589844 74.9375 221.472656 75.875 C 221.527344 75.929688 221.582031 75.929688 221.640625 75.988281 C 222.359375 76.429688 223.078125 76.816406 223.796875 77.257812 C 223.851562 77.257812 223.851562 77.3125 223.90625 77.3125 C 228.886719 80.632812 233.480469 84.503906 237.628906 88.820312 C 237.960938 83.675781 237.742188 79.417969 236.910156 75.988281 C 236.910156 75.929688 236.910156 75.875 236.855469 75.820312 C 236.46875 73.71875 235.75 72.113281 234.863281 71.117188 C 234.808594 71.0625 234.753906 71.007812 234.699219 70.953125 C 232.375 68.019531 225.566406 68.796875 215.550781 73.222656 Z M 178.421875 65.917969 L 178.535156 65.917969 C 178.589844 65.917969 178.589844 65.917969 178.644531 65.917969 C 186.003906 66.195312 192.976562 67.027344 199.449219 68.410156 C 196.019531 56.957031 192.535156 55.628906 191.09375 55.628906 C 191.09375 55.628906 191.039062 55.628906 191.039062 55.628906 C 185.0625 55.628906 179.03125 59.058594 173.054688 65.863281 C 174.773438 65.863281 176.597656 65.863281 178.421875 65.917969 Z M 244.269531 282.652344 C 243.109375 282.652344 241.726562 282.375 240.230469 281.597656 C 238.292969 280.605469 236.746094 279.109375 235.695312 277.117188 C 234.917969 275.679688 234.308594 274.019531 233.921875 271.972656 C 233.921875 271.917969 233.921875 271.917969 233.921875 271.863281 C 233.589844 269.925781 233.3125 268.433594 233.09375 267.4375 C 232.316406 263.566406 230.933594 259.914062 228.832031 256.484375 C 226.730469 253.109375 224.128906 250.179688 221.03125 247.800781 C 219.648438 246.75 219.371094 244.703125 220.421875 243.320312 C 221.472656 241.9375 223.519531 241.660156 224.902344 242.710938 C 228.609375 245.589844 231.765625 249.074219 234.308594 253.109375 C 236.800781 257.148438 238.515625 261.574219 239.402344 266.167969 C 239.621094 267.160156 239.898438 268.65625 240.230469 270.648438 C 240.507812 272.03125 240.894531 273.136719 241.335938 273.964844 C 241.78125 274.796875 242.445312 275.402344 243.21875 275.847656 C 244.105469 276.289062 244.546875 276.179688 244.769531 276.121094 C 245.488281 275.792969 246.152344 274.796875 246.703125 273.246094 C 246.761719 272.96875 246.980469 271.808594 247.480469 267.605469 C 247.644531 266 249.027344 264.78125 250.632812 264.78125 C 252.292969 264.78125 253.621094 266 253.789062 267.660156 C 254.230469 271.699219 254.5625 272.96875 254.671875 273.300781 C 255.226562 274.132812 255.835938 274.683594 256.332031 274.90625 C 256.445312 274.90625 256.5 274.960938 256.609375 274.960938 C 256.609375 274.851562 256.664062 274.683594 256.664062 274.519531 C 256.664062 274.410156 256.664062 274.296875 256.664062 274.1875 C 256.886719 272.363281 256.996094 270.703125 257.050781 269.152344 C 257.164062 267.328125 257.164062 265.777344 257.050781 264.453125 C 256.941406 262.679688 258.269531 261.1875 260.039062 261.023438 C 261.8125 260.910156 263.304688 262.238281 263.472656 264.007812 C 263.527344 265.226562 263.582031 266.609375 263.527344 268.101562 C 264.796875 259.75 264.023438 251.398438 261.3125 243.097656 C 259.542969 237.679688 256.941406 231.59375 253.566406 225.011719 C 251.574219 221.082031 249.25 216.933594 246.703125 212.621094 C 245.820312 211.070312 246.316406 209.132812 247.8125 208.25 C 249.359375 207.363281 251.296875 207.863281 252.183594 209.355469 C 254.785156 213.78125 257.164062 218.039062 259.210938 222.078125 C 262.695312 228.9375 265.460938 235.355469 267.34375 241.050781 C 270.441406 250.402344 271.21875 259.914062 269.777344 269.320312 C 269.335938 272.417969 268.117188 274.628906 266.070312 275.734375 C 266.015625 275.734375 265.960938 275.792969 265.960938 275.792969 C 264.964844 276.289062 263.914062 276.453125 262.863281 276.234375 C 262.75 276.84375 262.53125 277.449219 262.253906 278.003906 C 262.199219 278.058594 262.199219 278.113281 262.144531 278.167969 C 261.3125 279.550781 260.039062 280.546875 258.378906 280.992188 C 256.996094 281.324219 255.667969 281.265625 254.339844 280.878906 C 254.285156 280.878906 254.230469 280.878906 254.230469 280.824219 C 253.066406 280.382812 251.960938 279.71875 251.019531 278.722656 C 249.96875 280.214844 248.753906 281.265625 247.257812 281.929688 C 247.257812 281.929688 247.203125 281.929688 247.203125 281.988281 C 246.371094 282.375 245.375 282.652344 244.269531 282.652344 Z M 254.507812 273.082031 Z M 165.808594 199.234375 C 163.484375 199.234375 161.050781 199.011719 158.613281 198.570312 C 151.917969 197.351562 146.332031 194.972656 141.960938 191.597656 C 141.960938 191.597656 141.902344 191.542969 141.902344 191.542969 C 135.207031 186.34375 131.167969 178.820312 129.839844 169.140625 C 129.34375 165.820312 130.007812 163.222656 131.945312 161.507812 C 134.15625 159.515625 137.644531 159.183594 142.457031 160.457031 C 161.546875 164.660156 178.421875 165.710938 192.699219 163.554688 C 196.019531 163.054688 200.613281 162.777344 202.769531 165.820312 C 204.152344 167.757812 204.042969 170.191406 202.550781 173.125 C 199.394531 179.152344 195.742188 184.1875 191.757812 188.058594 C 183.957031 195.472656 175.269531 199.234375 165.808594 199.234375 Z M 148.988281 188.554688 C 152.03125 190.214844 155.625 191.488281 159.777344 192.207031 C 168.851562 193.921875 176.929688 191.875 184.289062 186.066406 C 171.617188 178.101562 159.996094 178.929688 148.988281 188.554688 Z M 136.148438 166.265625 C 136.148438 166.265625 135.929688 166.707031 136.148438 168.199219 C 137.144531 175.226562 139.636719 180.644531 143.785156 184.683594 C 157.617188 171.960938 173.167969 170.910156 189.101562 181.585938 C 191.925781 178.488281 194.527344 174.671875 196.851562 170.191406 C 196.960938 170.027344 197.015625 169.859375 197.070312 169.695312 C 196.460938 169.636719 195.355469 169.636719 193.585938 169.914062 C 178.589844 172.238281 160.882812 171.132812 140.964844 166.761719 C 140.90625 166.761719 140.851562 166.761719 140.796875 166.707031 C 137.144531 165.65625 136.203125 166.265625 136.148438 166.265625 Z M 215 153.152344 C 213.394531 153.152344 212.066406 151.992188 211.84375 150.386719 C 211.125 145.023438 209.410156 141.59375 206.808594 140.15625 C 205.039062 139.214844 200.28125 136.613281 193.640625 147.179688 C 192.699219 148.671875 190.707031 149.117188 189.214844 148.175781 C 187.71875 147.234375 187.277344 145.242188 188.21875 143.75 C 196.351562 130.859375 204.484375 131.636719 209.910156 134.566406 C 214.445312 137.054688 217.269531 142.089844 218.261719 149.613281 C 218.484375 151.382812 217.269531 152.988281 215.496094 153.210938 C 215.277344 153.152344 215.109375 153.152344 215 153.152344 Z M 136.980469 142.089844 C 135.429688 142.089844 134.046875 140.929688 133.824219 139.378906 C 132.941406 133.238281 130.894531 129.867188 127.847656 129.3125 C 124.363281 128.59375 120.546875 131.082031 116.507812 136.613281 C 115.453125 138.050781 113.460938 138.328125 112.023438 137.332031 C 110.585938 136.28125 110.308594 134.289062 111.304688 132.851562 C 116.949219 125.109375 122.925781 121.84375 129.066406 123.0625 C 135.042969 124.167969 138.75 129.367188 140.132812 138.496094 C 140.410156 140.265625 139.191406 141.871094 137.421875 142.144531 C 137.3125 142.089844 137.144531 142.089844 136.980469 142.089844 Z M 61.503906 132.90625 C 61.171875 132.90625 60.785156 132.851562 60.453125 132.742188 L 45.570312 127.429688 C 43.910156 126.824219 43.023438 124.996094 43.632812 123.339844 C 44.242188 121.679688 46.066406 120.792969 47.726562 121.402344 L 62.554688 126.65625 C 64.214844 127.265625 65.101562 129.089844 64.492188 130.75 C 64.050781 132.078125 62.777344 132.90625 61.503906 132.90625 Z M 65.765625 116.644531 C 65.101562 116.644531 64.382812 116.421875 63.828125 115.980469 L 51.378906 106.410156 C 49.996094 105.304688 49.71875 103.3125 50.769531 101.929688 C 51.878906 100.546875 53.867188 100.269531 55.253906 101.320312 L 67.648438 110.890625 C 69.03125 112 69.308594 113.988281 68.253906 115.371094 C 67.648438 116.203125 66.707031 116.644531 65.765625 116.644531 Z M 79.15625 112.328125 C 77.882812 112.328125 76.667969 111.554688 76.167969 110.285156 L 68.53125 90.699219 C 67.867188 89.042969 68.699219 87.214844 70.359375 86.550781 C 72.019531 85.886719 73.84375 86.71875 74.507812 88.378906 L 82.144531 107.960938 C 82.808594 109.621094 81.976562 111.445312 80.316406 112.109375 C 79.929688 112.21875 79.542969 112.328125 79.15625 112.328125 Z M 79.15625 112.328125 " fill-opacity="1" fill-rule="nonzero"/></g></svg>