<svg xmlns="http://www.w3.org/2000/svg" xmlns:xlink="http://www.w3.org/1999/xlink" width="100" zoomAndPan="magnify" viewBox="0 0 75.119995 83.04" height="100" preserveAspectRatio="xMidYMid meet" version="1.0"><defs><clipPath id="10ba0ad1dd"><path d="M 12 5.011719 L 62 5.011719 L 62 66.539062 L 12 66.539062 Z M 12 5.011719 " clip-rule="nonzero"/></clipPath><clipPath id="b19c2e288c"><path d="M 12 5.011719 L 43 5.011719 L 43 66.539062 L 12 66.539062 Z M 12 5.011719 " clip-rule="nonzero"/></clipPath><clipPath id="2219f47003"><path d="M 34 5.011719 L 39 5.011719 L 39 10 L 34 10 Z M 34 5.011719 " clip-rule="nonzero"/></clipPath><clipPath id="0fd91ad3f0"><path d="M 28 58 L 43 58 L 43 66.539062 L 28 66.539062 Z M 28 58 " clip-rule="nonzero"/></clipPath></defs><g clip-path="url(#10ba0ad1dd)"><path fill="#f4f0d0" d="M 37.054688 5.011719 C 65.046875 5.011719 74.089844 66.285156 37.054688 66.722656 C 0.0195312 66.285156 9.0625 5.011719 37.054688 5.011719 Z M 37.054688 5.011719 " fill-opacity="1" fill-rule="nonzero"/></g><g clip-path="url(#b19c2e288c)"><path fill="#e6ded9" d="M 42.523438 66.164062 C 16.863281 65.027344 17.632812 11.933594 36.472656 5.019531 C 8.941406 5.863281 0.28125 66.289062 37.054688 66.722656 C 39.003906 66.699219 40.824219 66.507812 42.523438 66.164062 Z M 42.523438 66.164062 " fill-opacity="1" fill-rule="nonzero"/></g><path fill="#e9bbc7" d="M 19.632812 53.808594 C 19.632812 49.917969 20.753906 49.1875 22.996094 49.03125 C 25.796875 48.835938 27.25 52.574219 25.886719 54.445312 C 24.527344 56.320312 20.03125 57.980469 19.632812 53.808594 Z M 19.632812 53.808594 " fill-opacity="1" fill-rule="nonzero"/><path fill="#e9bbc7" d="M 43.332031 39.035156 C 43.121094 37.019531 44.082031 35.910156 45.910156 35.792969 C 48.195312 35.652344 48.40625 38.273438 47.296875 39.65625 C 46.1875 41.035156 43.65625 42.113281 43.332031 39.035156 Z M 43.332031 39.035156 " fill-opacity="1" fill-rule="nonzero"/><g clip-path="url(#2219f47003)"><path fill="#e9bbc7" d="M 34.4375 8.242188 C 34.285156 6.703125 34.671875 5.746094 36.375 5.632812 C 38.503906 5.488281 39.625 7.765625 38.59375 9.140625 C 37.558594 10.511719 34.589844 9.78125 34.4375 8.242188 Z M 34.4375 8.242188 " fill-opacity="1" fill-rule="nonzero"/></g><path fill="#e9bbc7" d="M 29.546875 29.265625 C 29.230469 26.585938 30.039062 24.917969 33.589844 24.71875 C 38.03125 24.472656 38.101562 28.929688 35.945312 31.324219 C 33.789062 33.71875 29.859375 31.949219 29.546875 29.265625 Z M 29.546875 29.265625 " fill-opacity="1" fill-rule="nonzero"/><path fill="#e9bbc7" d="M 49.597656 9.757812 C 51.375 11.246094 52.976562 13.027344 54.386719 15.03125 C 52.359375 16.1875 49.507812 16.363281 49.179688 12.964844 C 49.179688 11.542969 49.320312 10.507812 49.597656 9.757812 Z M 49.597656 9.757812 " fill-opacity="1" fill-rule="nonzero"/><path fill="#e9bbc7" d="M 16.351562 20.984375 C 17.90625 17.535156 19.902344 14.414062 22.296875 11.863281 C 25.84375 12.550781 27.507812 17.542969 25.601562 20.167969 C 23.730469 22.746094 18.011719 25.066406 16.351562 20.984375 Z M 16.351562 20.984375 " fill-opacity="1" fill-rule="nonzero"/><g clip-path="url(#0fd91ad3f0)"><path fill="#e9bbc7" d="M 42.410156 66.1875 C 40.742188 66.515625 38.960938 66.699219 37.054688 66.722656 C 33.832031 66.683594 30.953125 66.183594 28.410156 65.304688 C 29.011719 60 31.300781 58.855469 35.28125 58.582031 C 39.59375 58.28125 42.378906 62.425781 42.410156 66.1875 Z M 42.410156 66.1875 " fill-opacity="1" fill-rule="nonzero"/></g><path fill="#e9bbc7" d="M 61.414062 42.273438 C 60.804688 49.523438 58.199219 56.28125 53.226562 60.847656 C 52.410156 59.6875 51.84375 58.105469 51.644531 56.011719 C 51.644531 44.832031 54.902344 42.722656 61.414062 42.273438 Z M 61.414062 42.273438 " fill-opacity="1" fill-rule="nonzero"/><path fill="#f4f0d0" d="M 50.453125 21.089844 C 49.644531 17.683594 48.082031 15.921875 46.855469 15.132812 C 46.75 15.066406 46.695312 15.03125 45.878906 14.722656 C 45.0625 14.414062 44.851562 14.378906 44.429688 14.316406 C 42.089844 13.957031 39.257812 14.789062 40.601562 20.167969 C 42.601562 28.167969 51.835938 26.9375 50.453125 21.089844 Z M 50.453125 21.089844 " fill-opacity="0.4" fill-rule="nonzero"/></svg>