<svg xmlns="http://www.w3.org/2000/svg" xmlns:xlink="http://www.w3.org/1999/xlink" width="100" zoomAndPan="magnify" viewBox="0 0 75.119995 83.04" height="100" preserveAspectRatio="xMidYMid meet" version="1.0"><defs><clipPath id="7f1c605fe4"><path d="M 42 57 L 52 57 L 52 63.757812 L 42 63.757812 Z M 42 57 " clip-rule="nonzero"/></clipPath><clipPath id="a251dbc486"><path d="M 41 58 L 44 58 L 44 63.757812 L 41 63.757812 Z M 41 58 " clip-rule="nonzero"/></clipPath><clipPath id="2265d51157"><path d="M 42 61 L 43 61 L 43 63.757812 L 42 63.757812 Z M 42 61 " clip-rule="nonzero"/></clipPath><clipPath id="dff972ad70"><path d="M 43 61 L 46 61 L 46 63.757812 L 43 63.757812 Z M 43 61 " clip-rule="nonzero"/></clipPath><clipPath id="42c00f70cc"><path d="M 45 61 L 48 61 L 48 63.757812 L 45 63.757812 Z M 45 61 " clip-rule="nonzero"/></clipPath><clipPath id="600742071c"><path d="M 18 7.417969 L 24 7.417969 L 24 12 L 18 12 Z M 18 7.417969 " clip-rule="nonzero"/></clipPath><clipPath id="96dea1e48e"><path d="M 2 9 L 74 9 L 74 63.757812 L 2 63.757812 Z M 2 9 " clip-rule="nonzero"/></clipPath><clipPath id="670a7a866b"><path d="M 33 61 L 35 61 L 35 63.757812 L 33 63.757812 Z M 33 61 " clip-rule="nonzero"/></clipPath><clipPath id="38026e69be"><path d="M 34 61 L 38 61 L 38 63.757812 L 34 63.757812 Z M 34 61 " clip-rule="nonzero"/></clipPath><clipPath id="5c249b9b9c"><path d="M 37 61 L 40 61 L 40 63.757812 L 37 63.757812 Z M 37 61 " clip-rule="nonzero"/></clipPath><clipPath id="1562126aca"><path d="M 52 61 L 54 61 L 54 63.757812 L 52 63.757812 Z M 52 61 " clip-rule="nonzero"/></clipPath><clipPath id="7d61dedc03"><path d="M 53 61 L 56 61 L 56 63.757812 L 53 63.757812 Z M 53 61 " clip-rule="nonzero"/></clipPath><clipPath id="dbbed720e4"><path d="M 56 61 L 59 61 L 59 63.757812 L 56 63.757812 Z M 56 61 " clip-rule="nonzero"/></clipPath><clipPath id="3cf4173108"><path d="M 21 61 L 23 61 L 23 63.757812 L 21 63.757812 Z M 21 61 " clip-rule="nonzero"/></clipPath><clipPath id="e1945a9321"><path d="M 22 61 L 25 61 L 25 63.757812 L 22 63.757812 Z M 22 61 " clip-rule="nonzero"/></clipPath><clipPath id="fc88b9ddfd"><path d="M 24 61 L 28 61 L 28 63.757812 L 24 63.757812 Z M 24 61 " clip-rule="nonzero"/></clipPath></defs><g clip-path="url(#7f1c605fe4)"><path fill="#f5ebd7" d="M 45.53125 63.335938 C 45.46875 63.335938 45.410156 63.335938 45.347656 63.335938 C 45.21875 63.332031 45.089844 63.332031 44.96875 63.324219 C 44.367188 63.304688 43.769531 63.257812 43.175781 63.175781 C 43.011719 63.152344 42.847656 63.128906 42.695312 63.105469 C 42.320312 63.042969 42.101562 62.988281 42.101562 62.988281 L 42.09375 62.988281 L 43.355469 58.753906 L 43.359375 58.753906 L 51.226562 57.667969 L 51.226562 57.675781 C 51.226562 57.710938 51.285156 61.082031 50.980469 61.882812 C 50.6875 62.660156 49.859375 62.976562 47.445312 63.226562 C 47.332031 63.238281 47.203125 63.25 47.0625 63.265625 C 46.566406 63.3125 46.050781 63.335938 45.53125 63.335938 Z M 42.109375 62.976562 C 42.152344 62.984375 42.363281 63.03125 42.699219 63.089844 C 42.851562 63.113281 43.011719 63.136719 43.175781 63.160156 C 43.769531 63.242188 44.367188 63.289062 44.96875 63.308594 C 45.089844 63.316406 45.21875 63.316406 45.347656 63.320312 C 45.921875 63.324219 46.492188 63.300781 47.058594 63.25 C 47.203125 63.234375 47.328125 63.222656 47.445312 63.210938 C 49.851562 62.957031 50.675781 62.648438 50.96875 61.878906 L 50.972656 61.878906 L 50.96875 61.878906 C 51.261719 61.097656 51.214844 57.875 51.210938 57.683594 L 43.367188 58.765625 Z M 42.109375 62.976562 " fill-opacity="1" fill-rule="nonzero"/></g><g clip-path="url(#a251dbc486)"><path fill="#8066a3" d="M 42.453125 63.242188 L 43.453125 59.9375 L 43.929688 58.5 C 43.929688 58.5 41.792969 59.691406 41.792969 59.800781 C 41.792969 59.90625 41.164062 63.242188 42.453125 63.242188 Z M 42.453125 63.242188 " fill-opacity="1" fill-rule="nonzero"/></g><g clip-path="url(#2265d51157)"><path fill="#f5ebd7" d="M 42.816406 62.445312 C 42.816406 62.671875 42.777344 62.886719 42.699219 63.097656 C 42.316406 63.03125 42.101562 62.980469 42.101562 62.980469 L 42.542969 61.503906 C 42.710938 61.738281 42.816406 62.074219 42.816406 62.445312 Z M 42.816406 62.445312 " fill-opacity="1" fill-rule="nonzero"/></g><g clip-path="url(#dff972ad70)"><path fill="#f5ebd7" d="M 45.203125 62.46875 C 45.203125 62.789062 45.113281 63.085938 44.96875 63.320312 C 44.367188 63.300781 43.769531 63.25 43.175781 63.167969 C 43.070312 62.945312 43.019531 62.714844 43.023438 62.46875 C 43.023438 61.714844 43.511719 61.101562 44.113281 61.101562 C 44.714844 61.101562 45.203125 61.710938 45.203125 62.46875 Z M 45.203125 62.46875 " fill-opacity="1" fill-rule="nonzero"/></g><g clip-path="url(#42c00f70cc)"><path fill="#f5ebd7" d="M 47.472656 62.898438 C 47.472656 63.003906 47.464844 63.113281 47.445312 63.21875 C 47.320312 63.230469 47.191406 63.242188 47.058594 63.257812 C 46.492188 63.308594 45.921875 63.332031 45.347656 63.328125 C 45.3125 63.1875 45.292969 63.042969 45.292969 62.898438 C 45.292969 62.140625 45.78125 61.527344 46.382812 61.527344 C 46.984375 61.527344 47.472656 62.140625 47.472656 62.898438 Z M 47.472656 62.898438 " fill-opacity="1" fill-rule="nonzero"/></g><path fill="#f5ebd7" d="M 38.292969 20.109375 C 38.292969 20.109375 41.242188 21.199219 40.875 22.574219 C 40.503906 23.953125 39.597656 25.296875 39.597656 25.296875 C 39.597656 25.296875 38.371094 24.273438 38.292969 24.042969 C 38.21875 23.816406 38.292969 20.109375 38.292969 20.109375 Z M 38.292969 20.109375 " fill-opacity="1" fill-rule="nonzero"/><path fill="#f5ebd7" d="M 34.160156 14.191406 C 34.160156 14.191406 37.265625 13.679688 37.632812 15.054688 C 37.996094 16.433594 37.882812 18.050781 37.882812 18.050781 C 37.882812 18.050781 36.304688 17.769531 36.125 17.605469 C 35.945312 17.445312 34.160156 14.191406 34.160156 14.191406 Z M 34.160156 14.191406 " fill-opacity="1" fill-rule="nonzero"/><path fill="#f5ebd7" d="M 26.089844 10.632812 C 26.089844 10.632812 29.207031 8.089844 30.066406 9.273438 C 30.921875 10.457031 31.347656 12.199219 31.347656 12.199219 C 31.347656 12.199219 29.578125 12.929688 29.332031 12.882812 C 29.085938 12.835938 26.089844 10.632812 26.089844 10.632812 Z M 26.089844 10.632812 " fill-opacity="1" fill-rule="nonzero"/><g clip-path="url(#600742071c)"><path fill="#f5ebd7" d="M 18.5 11.210938 C 18.5 11.210938 19.820312 7.417969 21.171875 7.980469 C 22.523438 8.542969 23.800781 9.804688 23.800781 9.804688 C 23.800781 9.804688 22.679688 11.351562 22.445312 11.4375 C 22.210938 11.527344 18.5 11.210938 18.5 11.210938 Z M 18.5 11.210938 " fill-opacity="1" fill-rule="nonzero"/></g><path fill="#f5ebd7" d="M 10.9375 15.171875 C 10.9375 15.171875 10.421875 11.191406 11.882812 11.09375 C 13.34375 10.996094 15.054688 11.558594 15.054688 11.558594 C 15.054688 11.558594 14.742188 13.441406 14.570312 13.621094 C 14.398438 13.804688 10.9375 15.171875 10.9375 15.171875 Z M 10.9375 15.171875 " fill-opacity="1" fill-rule="nonzero"/><path fill="#f5ebd7" d="M 8.035156 22.609375 C 8.035156 22.609375 5.347656 19.613281 6.5 18.710938 C 7.648438 17.808594 9.378906 17.308594 9.378906 17.308594 C 9.378906 17.308594 10.1875 19.035156 10.152344 19.285156 C 10.113281 19.53125 8.035156 22.609375 8.035156 22.609375 Z M 8.035156 22.609375 " fill-opacity="1" fill-rule="nonzero"/><path fill="#f5ebd7" d="M 6.777344 30.285156 C 6.777344 30.285156 4.089844 27.289062 5.238281 26.386719 C 6.390625 25.484375 8.117188 24.984375 8.117188 24.984375 C 8.117188 24.984375 8.929688 26.714844 8.890625 26.960938 C 8.851562 27.207031 6.777344 30.285156 6.777344 30.285156 Z M 6.777344 30.285156 " fill-opacity="1" fill-rule="nonzero"/><g clip-path="url(#96dea1e48e)"><path fill="#9b82bc" d="M 73.640625 53.667969 C 73.597656 53.710938 73.554688 53.753906 73.503906 53.796875 C 72.832031 54.40625 71.484375 55.128906 69.632812 55.753906 C 69.59375 55.765625 69.554688 55.78125 69.515625 55.792969 C 66.015625 56.957031 61.5625 56.34375 61.5625 56.34375 C 61.703125 56.726562 61.824219 60.214844 61.457031 61.988281 C 61.277344 62.859375 59.816406 63.296875 58.152344 63.457031 C 57.457031 63.523438 56.757812 63.542969 56.058594 63.523438 C 55.933594 63.519531 55.8125 63.515625 55.695312 63.511719 C 54.992188 63.476562 54.347656 63.40625 53.855469 63.308594 C 53.730469 63.28125 53.613281 63.253906 53.503906 63.226562 C 53.484375 63.21875 53.464844 63.214844 53.445312 63.210938 C 52.117188 62.832031 52.375 62.246094 52.671875 61.398438 C 52.78125 61.078125 52.898438 60.71875 52.9375 60.320312 C 53.074219 58.851562 52.292969 57.292969 52.292969 57.292969 L 52.289062 57.292969 C 48.761719 59.0625 43.253906 59.441406 43.144531 59.449219 C 43.144531 59.449219 43.136719 59.496094 43.121094 59.578125 C 43.117188 59.59375 43.113281 59.609375 43.113281 59.621094 C 43.113281 59.625 43.109375 59.628906 43.109375 59.628906 C 42.980469 60.316406 42.507812 62.730469 42.175781 63.058594 C 41.976562 63.257812 40.726562 63.511719 39.246094 63.652344 C 38.566406 63.71875 37.84375 63.757812 37.152344 63.757812 C 37.023438 63.757812 36.894531 63.753906 36.765625 63.75 C 36.199219 63.738281 35.664062 63.691406 35.207031 63.609375 C 35.121094 63.59375 35.039062 63.574219 34.960938 63.558594 C 34.800781 63.523438 34.65625 63.484375 34.53125 63.441406 C 33.175781 63 33.492188 62.25 33.671875 61.625 C 33.691406 61.566406 33.707031 61.507812 33.71875 61.453125 C 33.886719 60.71875 34.132812 59.003906 34.132812 59.003906 L 30.773438 58.132812 C 30.773438 58.132812 30.761719 58.496094 30.738281 59 C 30.703125 59.742188 30.636719 60.789062 30.527344 61.390625 C 30.34375 62.398438 29.898438 63.074219 28.484375 63.257812 C 28.175781 63.296875 27.691406 63.324219 27.113281 63.335938 C 26.472656 63.351562 25.71875 63.347656 24.96875 63.316406 C 24.890625 63.3125 24.808594 63.308594 24.730469 63.304688 C 24.015625 63.273438 23.320312 63.214844 22.75 63.128906 C 22.636719 63.113281 22.527344 63.09375 22.421875 63.074219 C 21.90625 62.976562 21.539062 62.851562 21.425781 62.691406 C 21.214844 62.394531 21.269531 61.929688 21.40625 61.425781 C 21.585938 60.757812 21.910156 60.023438 21.945312 59.523438 C 22.007812 58.652344 21.671875 56.054688 21.257812 54.722656 C 21.070312 54.125 20.769531 53.140625 20.496094 52.238281 C 20.15625 51.125 19.859375 50.132812 19.859375 50.132812 C 19.710938 49.925781 19.539062 49.640625 19.367188 49.332031 C 18.875 48.445312 18.371094 47.351562 18.300781 47.199219 L 18.292969 47.183594 C 18.292969 47.183594 18.21875 47.199219 18.078125 47.226562 C 17.117188 47.402344 13.085938 48.035156 8.378906 47.183594 C 7.304688 46.988281 6.390625 46.511719 5.625 45.851562 C 5.535156 45.773438 5.445312 45.691406 5.359375 45.609375 C 5.324219 45.574219 5.285156 45.539062 5.25 45.503906 C 2.472656 42.730469 1.839844 37.488281 2.515625 35.621094 C 3.390625 33.191406 6.335938 31.03125 6.335938 31.03125 C 6.335938 31.03125 6.367188 30.300781 6.488281 29.230469 C 6.613281 28.15625 6.210938 24.367188 6.210938 24.289062 C 6.214844 24.269531 6.21875 24.253906 6.226562 24.234375 C 6.351562 23.78125 7.371094 20.644531 7.457031 20.375 C 7.546875 20.082031 7.777344 19.058594 8.160156 18.1875 C 8.546875 17.316406 9.910156 15.1875 10.679688 14.484375 C 11.445312 13.78125 13.503906 12.238281 14.472656 11.671875 C 15.4375 11.105469 17.648438 10.355469 19.613281 10.355469 C 21.578125 10.355469 22.175781 10.082031 23.144531 9.835938 C 24.109375 9.589844 26.152344 9.972656 27.289062 10.617188 C 28.425781 11.257812 29.960938 11.535156 31.449219 12.054688 C 32.9375 12.574219 34.425781 13.980469 34.839844 14.867188 C 35.253906 15.753906 37.113281 17.5 37.695312 18.429688 C 38.164062 19.179688 38.273438 20.105469 38.679688 21.855469 C 38.976562 23.148438 39.175781 24.230469 39.300781 24.984375 C 40.027344 24.761719 40.769531 24.59375 41.527344 24.480469 C 43.238281 24.226562 44.824219 24.292969 46.226562 24.515625 C 48.578125 24.886719 50.402344 25.691406 51.410156 26.148438 C 56.777344 28.582031 59.976562 32.777344 61.144531 34.863281 C 62.492188 37.28125 64.949219 45.082031 67.144531 48.183594 C 69.339844 51.289062 72.554688 52.136719 73.660156 52.628906 C 74.121094 52.832031 74.085938 53.210938 73.640625 53.667969 Z M 73.640625 53.667969 " fill-opacity="1" fill-rule="nonzero"/></g><path fill="#8066a3" d="M 46.226562 24.511719 C 46.164062 25.53125 45.800781 29.605469 43.964844 30.566406 C 41.863281 31.667969 40.695312 36.132812 39.285156 37.585938 C 37.871094 39.039062 35.753906 40.691406 31.457031 40.738281 C 31.457031 40.738281 29.644531 44.574219 26.082031 46.457031 C 24.648438 47.214844 22.046875 48.308594 19.367188 49.332031 C 18.875 48.445312 18.371094 47.351562 18.300781 47.199219 L 18.292969 47.183594 C 18.292969 47.183594 18.21875 47.199219 18.078125 47.226562 C 17.117188 47.402344 13.085938 48.035156 8.378906 47.183594 C 7.304688 46.988281 6.390625 46.511719 5.625 45.851562 C 5.535156 45.773438 5.445312 45.691406 5.359375 45.609375 L 5.953125 45.472656 C 5.953125 45.472656 11.410156 46.824219 17.535156 45.660156 C 23.660156 44.5 24.914062 42.574219 25.191406 42.472656 C 25.222656 42.464844 25.285156 42.421875 25.378906 42.359375 C 26.570312 42.542969 27.738281 42.542969 28.453125 42.089844 C 29.28125 41.566406 29.214844 40.597656 28.871094 39.660156 C 28.871094 39.660156 29.0625 39.5 30.582031 39.46875 C 32.101562 39.4375 34.417969 38.582031 34.417969 38.582031 C 34.417969 38.582031 36.859375 37.402344 36.859375 37.203125 C 36.859375 37.007812 36.59375 36.398438 36.710938 36.320312 C 36.828125 36.242188 37.394531 35.324219 37.71875 34.710938 C 38.042969 34.101562 38.5 32.65625 38.5 32.65625 L 39.683594 30.292969 L 39.574219 28.410156 C 39.574219 28.410156 39.960938 26.546875 39.300781 24.984375 C 40.027344 24.761719 40.769531 24.59375 41.527344 24.480469 C 43.238281 24.226562 44.824219 24.292969 46.226562 24.511719 Z M 46.226562 24.511719 " fill-opacity="1" fill-rule="nonzero"/><path fill="#f5ebd7" d="M 39.53125 28.410156 C 39.53125 28.410156 38.902344 29.742188 38.59375 31.101562 C 38.285156 32.464844 38.363281 32.675781 38.65625 32.707031 C 38.945312 32.738281 40.851562 31.898438 40.972656 30.476562 C 41.097656 29.050781 39.53125 28.410156 39.53125 28.410156 Z M 39.53125 28.410156 " fill-opacity="1" fill-rule="nonzero"/><path fill="#f5ebd7" d="M 36.828125 36.242188 C 36.828125 36.242188 35.960938 36.800781 35.277344 37.496094 C 34.59375 38.191406 34.558594 38.34375 34.722656 38.46875 C 34.882812 38.59375 36.324219 38.792969 36.921875 37.996094 C 37.519531 37.195312 36.828125 36.242188 36.828125 36.242188 Z M 36.828125 36.242188 " fill-opacity="1" fill-rule="nonzero"/><path fill="#8066a3" d="M 22.359375 11.976562 C 22.359375 11.976562 20.765625 12.296875 21.179688 14.914062 C 21.59375 17.53125 20.566406 19.882812 20.335938 20.769531 C 20.105469 21.660156 20.78125 23.691406 23.652344 21.964844 C 26.519531 20.234375 28.441406 15.019531 28.117188 13.949219 C 27.796875 12.878906 26.136719 11.074219 22.359375 11.976562 Z M 22.359375 11.976562 " fill-opacity="1" fill-rule="nonzero"/><path fill="#8066a3" d="M 14.324219 13.164062 C 14.324219 13.164062 12.945312 13.886719 14.03125 16.175781 C 15.117188 18.46875 14.808594 20.90625 14.835938 21.78125 C 14.863281 22.65625 16.03125 24.34375 18.199219 21.992188 C 20.371094 19.636719 20.726562 14.332031 20.144531 13.4375 C 19.558594 12.539062 17.550781 11.328125 14.324219 13.164062 Z M 14.324219 13.164062 " fill-opacity="1" fill-rule="nonzero"/><path fill="#8066a3" d="M 9.652344 21.964844 C 9.652344 21.964844 8.4375 19.53125 9.511719 17.652344 C 10.585938 15.769531 11.738281 14.882812 12.382812 15.328125 C 13.027344 15.769531 13.242188 17.269531 13.488281 18.386719 C 13.734375 19.503906 14.472656 23.324219 13.8125 23.9375 C 13.152344 24.546875 12.0625 24.6875 12.0625 24.6875 Z M 9.652344 21.964844 " fill-opacity="1" fill-rule="nonzero"/><path fill="#8066a3" d="M 6.488281 29.230469 C 6.613281 28.15625 6.210938 24.367188 6.210938 24.289062 C 6.214844 24.269531 6.21875 24.253906 6.226562 24.234375 L 8.128906 24.535156 L 8.636719 28.433594 L 6.335938 31.03125 C 6.335938 31.03125 6.367188 30.300781 6.488281 29.230469 Z M 6.488281 29.230469 " fill-opacity="1" fill-rule="nonzero"/><path fill="#f5ebd7" d="M 12.890625 24.457031 C 12.890625 24.457031 10.359375 26.15625 9.851562 26.84375 C 9.34375 27.53125 8.636719 28.433594 8.636719 28.433594 C 8.636719 28.433594 6.71875 24.59375 3.832031 21.628906 C 0.949219 18.660156 0.0117188 18.035156 1.039062 17.679688 C 2.070312 17.328125 8.101562 20.113281 10.449219 21.824219 C 12.796875 23.539062 12.890625 24.457031 12.890625 24.457031 Z M 12.890625 24.457031 " fill-opacity="1" fill-rule="nonzero"/><path fill="#f5ebd7" d="M 12.550781 16.429688 C 12.550781 16.429688 11.292969 16 11.449219 16.734375 C 11.601562 17.46875 16.265625 21.949219 17.355469 23.859375 C 18.445312 25.773438 18.644531 27.332031 19.765625 27.5625 C 20.886719 27.789062 22.636719 27.410156 23.464844 25.878906 C 24.296875 24.351562 22.101562 21.335938 19.105469 19.59375 C 16.113281 17.851562 12.550781 16.429688 12.550781 16.429688 Z M 12.550781 16.429688 " fill-opacity="1" fill-rule="nonzero"/><path fill="#8066a3" d="M 29.546875 32.273438 C 29.546875 32.273438 27.671875 32.257812 27.257812 33.265625 C 26.84375 34.273438 26.875 37.164062 28.546875 37.730469 C 30.21875 38.296875 33.167969 38.3125 34.75 35.789062 C 36.328125 33.265625 36.285156 31.355469 34.503906 31.371094 C 32.722656 31.382812 30.851562 32.257812 29.546875 32.273438 Z M 29.546875 32.273438 " fill-opacity="1" fill-rule="nonzero"/><path fill="#8066a3" d="M 30.972656 24.914062 C 30.972656 24.914062 28.484375 26.339844 26.96875 27.269531 C 25.449219 28.203125 25.585938 28.847656 25.785156 29.582031 C 25.984375 30.316406 26.828125 31.019531 30.328125 31.0625 C 33.828125 31.109375 36.4375 30.496094 37.035156 27.988281 C 37.636719 25.480469 36.667969 22.714844 35.5 22.363281 C 34.335938 22.011719 33.382812 23.035156 32.738281 23.617188 C 32.09375 24.199219 30.972656 24.914062 30.972656 24.914062 Z M 30.972656 24.914062 " fill-opacity="1" fill-rule="nonzero"/><path fill="#8066a3" d="M 29.191406 16.074219 C 29.191406 16.074219 27.136719 20.25 26.015625 21.230469 C 24.894531 22.207031 24.617188 23.25 24.800781 23.984375 C 24.984375 24.71875 25.753906 26.09375 27.351562 25.542969 C 28.945312 24.992188 34.105469 22.195312 34.519531 20.113281 C 34.933594 18.035156 32.214844 14.820312 30.835938 15.144531 C 29.453125 15.464844 29.191406 16.074219 29.191406 16.074219 Z M 29.191406 16.074219 " fill-opacity="1" fill-rule="nonzero"/><path fill="#f5ebd7" d="M 1.9375 28.867188 C 1.9375 28.867188 1.246094 29.574219 1.9375 31.773438 C 2.628906 33.976562 2.964844 35.597656 4.714844 35.933594 C 6.464844 36.269531 8.03125 34.679688 7.941406 33.519531 C 7.847656 32.355469 5.867188 31.46875 4.257812 30.125 C 2.644531 28.777344 2.152344 28.441406 1.9375 28.867188 Z M 1.9375 28.867188 " fill-opacity="1" fill-rule="nonzero"/><path fill="#f5ebd7" d="M 3.480469 37.058594 C 3.480469 37.058594 1.976562 36.980469 1.976562 39.503906 C 1.976562 42.027344 3.511719 45.210938 4.230469 46.097656 C 4.953125 46.984375 5 46.050781 5.691406 45.316406 C 6.382812 44.582031 7.59375 44.125 8.804688 44.140625 C 10.019531 44.15625 10.125 44.140625 9.695312 43.222656 C 9.265625 42.304688 7.449219 40.828125 6.589844 40.171875 C 5.730469 39.511719 4.609375 37.648438 4.300781 37.355469 C 3.996094 37.066406 3.480469 37.058594 3.480469 37.058594 Z M 3.480469 37.058594 " fill-opacity="1" fill-rule="nonzero"/><path fill="#1b1623" d="M 8.441406 37.597656 C 8.582031 37.703125 8.648438 37.871094 8.640625 38.09375 C 8.628906 38.316406 8.546875 38.53125 8.386719 38.742188 C 8.230469 38.953125 8.046875 39.09375 7.832031 39.167969 C 7.621094 39.242188 7.445312 39.222656 7.300781 39.117188 C 7.160156 39.011719 7.09375 38.847656 7.101562 38.625 C 7.113281 38.402344 7.199219 38.183594 7.355469 37.972656 C 7.511719 37.765625 7.695312 37.621094 7.910156 37.550781 C 8.121094 37.476562 8.296875 37.492188 8.441406 37.597656 Z M 8.441406 37.597656 " fill-opacity="1" fill-rule="nonzero"/><path fill="#1b1623" d="M 19.105469 34.007812 C 19.105469 34.199219 19.070312 34.378906 18.996094 34.554688 C 18.925781 34.730469 18.820312 34.882812 18.6875 35.019531 C 18.550781 35.152344 18.398438 35.257812 18.222656 35.328125 C 18.046875 35.402344 17.863281 35.4375 17.671875 35.4375 C 17.480469 35.4375 17.296875 35.402344 17.121094 35.328125 C 16.945312 35.257812 16.792969 35.152344 16.65625 35.019531 C 16.523438 34.882812 16.417969 34.730469 16.347656 34.554688 C 16.273438 34.378906 16.238281 34.199219 16.238281 34.007812 C 16.238281 33.816406 16.273438 33.636719 16.347656 33.460938 C 16.417969 33.285156 16.523438 33.128906 16.65625 32.996094 C 16.792969 32.863281 16.945312 32.757812 17.121094 32.6875 C 17.296875 32.613281 17.480469 32.578125 17.671875 32.578125 C 17.863281 32.578125 18.046875 32.613281 18.222656 32.6875 C 18.398438 32.757812 18.550781 32.863281 18.6875 32.996094 C 18.820312 33.128906 18.925781 33.285156 18.996094 33.460938 C 19.070312 33.636719 19.105469 33.816406 19.105469 34.007812 Z M 19.105469 34.007812 " fill-opacity="1" fill-rule="nonzero"/><path fill="#1b1623" d="M 27.441406 37.195312 C 27.628906 37.394531 27.808594 37.597656 27.972656 37.8125 C 28.140625 38.027344 28.300781 38.25 28.449219 38.480469 C 28.597656 38.710938 28.734375 38.949219 28.859375 39.195312 L 28.90625 39.289062 C 28.917969 39.320312 28.9375 39.347656 28.949219 39.382812 L 29.035156 39.574219 C 29.085938 39.699219 29.136719 39.832031 29.179688 39.964844 C 29.261719 40.234375 29.328125 40.519531 29.335938 40.816406 C 29.339844 40.96875 29.328125 41.117188 29.300781 41.265625 L 29.285156 41.324219 L 29.273438 41.378906 L 29.265625 41.410156 L 29.253906 41.4375 L 29.238281 41.492188 L 29.214844 41.546875 L 29.207031 41.578125 C 29.203125 41.585938 29.199219 41.59375 29.195312 41.601562 L 29.167969 41.65625 C 29.160156 41.675781 29.152344 41.691406 29.140625 41.710938 C 29.066406 41.851562 28.96875 41.980469 28.851562 42.089844 C 28.738281 42.199219 28.613281 42.292969 28.476562 42.367188 C 28.34375 42.441406 28.203125 42.5 28.058594 42.546875 C 27.921875 42.589844 27.777344 42.625 27.632812 42.652344 C 27.351562 42.699219 27.070312 42.722656 26.78125 42.722656 C 26.640625 42.722656 26.503906 42.71875 26.363281 42.707031 C 26.222656 42.699219 26.085938 42.6875 25.949219 42.671875 C 25.808594 42.65625 25.671875 42.636719 25.535156 42.617188 C 25.46875 42.605469 25.398438 42.59375 25.332031 42.582031 L 25.128906 42.542969 C 25.0625 42.53125 24.996094 42.519531 24.925781 42.503906 L 24.726562 42.457031 L 24.625 42.4375 L 24.574219 42.425781 L 24.527344 42.410156 L 24.328125 42.359375 C 24.195312 42.328125 24.0625 42.289062 23.933594 42.25 L 23.832031 42.222656 L 23.734375 42.195312 C 23.671875 42.171875 23.605469 42.152344 23.539062 42.132812 C 23.476562 42.113281 23.410156 42.089844 23.34375 42.070312 C 23.28125 42.046875 23.214844 42.027344 23.152344 42.003906 L 22.957031 41.9375 C 22.894531 41.914062 22.832031 41.890625 22.765625 41.867188 C 22.511719 41.769531 22.257812 41.671875 22.007812 41.5625 C 21.757812 41.457031 21.511719 41.34375 21.269531 41.21875 C 21.53125 41.292969 21.792969 41.363281 22.054688 41.429688 C 22.1875 41.464844 22.316406 41.5 22.449219 41.53125 C 22.511719 41.546875 22.578125 41.566406 22.644531 41.582031 L 22.839844 41.628906 C 22.972656 41.664062 23.101562 41.691406 23.234375 41.722656 C 23.363281 41.753906 23.496094 41.785156 23.625 41.8125 C 23.691406 41.828125 23.757812 41.839844 23.824219 41.855469 L 23.921875 41.878906 L 24.019531 41.898438 C 24.152344 41.921875 24.28125 41.949219 24.414062 41.976562 L 24.613281 42.011719 L 24.660156 42.019531 L 24.710938 42.027344 L 24.808594 42.042969 L 25.007812 42.078125 C 25.070312 42.089844 25.136719 42.097656 25.203125 42.105469 C 25.46875 42.144531 25.730469 42.175781 25.992188 42.199219 C 26.257812 42.21875 26.519531 42.230469 26.777344 42.226562 C 27.035156 42.226562 27.289062 42.203125 27.542969 42.15625 C 27.789062 42.113281 28.027344 42.042969 28.234375 41.933594 C 28.441406 41.824219 28.609375 41.671875 28.722656 41.480469 C 28.726562 41.46875 28.734375 41.457031 28.742188 41.445312 L 28.761719 41.410156 C 28.761719 41.402344 28.765625 41.394531 28.769531 41.390625 L 28.824219 41.253906 L 28.835938 41.210938 L 28.84375 41.167969 C 28.871094 41.054688 28.886719 40.9375 28.890625 40.820312 C 28.890625 40.695312 28.882812 40.570312 28.867188 40.449219 C 28.851562 40.324219 28.828125 40.199219 28.796875 40.074219 C 28.734375 39.820312 28.652344 39.574219 28.554688 39.332031 C 28.535156 39.269531 28.507812 39.207031 28.480469 39.148438 C 28.457031 39.085938 28.429688 39.023438 28.402344 38.964844 C 28.375 38.90625 28.347656 38.84375 28.320312 38.785156 C 28.289062 38.722656 28.261719 38.664062 28.234375 38.605469 C 27.996094 38.125 27.730469 37.65625 27.441406 37.195312 Z M 27.441406 37.195312 " fill-opacity="1" fill-rule="nonzero"/><path fill="#8066a3" d="M 31.617188 47.398438 C 31.617188 47.398438 31.863281 50.191406 32.269531 51.269531 C 32.675781 52.351562 31.292969 49.828125 31.292969 49.828125 C 31.339844 49.011719 31.449219 48.199219 31.617188 47.398438 Z M 31.617188 47.398438 " fill-opacity="1" fill-rule="nonzero"/><path fill="#def2e6" d="M 34.136719 59.003906 L 30.773438 58.132812 C 27.703125 56.992188 23.992188 55.011719 20.933594 51.480469 C 20.546875 51.035156 20.1875 50.585938 19.859375 50.136719 C 19.277344 49.324219 18.394531 47.402344 18.300781 47.199219 C 19.296875 47.082031 23.34375 46.53125 25.753906 45.089844 C 25.753906 45.089844 28.871094 48.347656 31.585938 49.539062 C 31.585938 49.539062 33.074219 53.269531 33.335938 54.140625 C 33.597656 55.015625 34.566406 57.675781 34.136719 59.003906 Z M 34.136719 59.003906 " fill-opacity="1" fill-rule="nonzero"/><path fill="#def2e6" d="M 43.113281 59.621094 C 43.117188 59.609375 43.117188 59.59375 43.121094 59.578125 C 43.117188 59.59375 43.117188 59.609375 43.113281 59.621094 Z M 43.113281 59.621094 " fill-opacity="1" fill-rule="nonzero"/><path fill="#def2e6" d="M 52.292969 57.292969 L 52.289062 57.292969 C 48.761719 59.0625 43.253906 59.441406 43.148438 59.449219 C 43.480469 57.65625 43.742188 52.304688 43.742188 52.304688 L 50.253906 52.046875 C 50.4375 53.773438 52.292969 57.292969 52.292969 57.292969 Z M 52.292969 57.292969 " fill-opacity="1" fill-rule="nonzero"/><path fill="#8066a3" d="M 38.738281 54.761719 C 38.71875 54.761719 38.699219 54.753906 38.683594 54.742188 C 37.792969 54.140625 36.917969 53.953125 36.082031 54.195312 C 35.460938 54.375 35.097656 54.726562 35.09375 54.730469 C 35.046875 54.777344 35.003906 54.773438 34.957031 54.730469 C 34.910156 54.683594 34.910156 54.636719 34.953125 54.589844 C 34.96875 54.574219 35.355469 54.195312 36.027344 54.003906 C 36.425781 53.890625 36.832031 53.867188 37.242188 53.929688 C 37.757812 54.011719 38.277344 54.230469 38.796875 54.578125 C 38.835938 54.605469 38.847656 54.644531 38.835938 54.691406 C 38.820312 54.738281 38.789062 54.761719 38.738281 54.761719 Z M 38.738281 54.761719 " fill-opacity="1" fill-rule="nonzero"/><path fill="#8066a3" d="M 36.441406 55.730469 C 36.101562 55.730469 35.761719 55.699219 35.425781 55.636719 C 35.355469 55.628906 35.328125 55.589844 35.34375 55.519531 C 35.355469 55.449219 35.398438 55.425781 35.46875 55.445312 C 35.484375 55.445312 36.875 55.722656 37.878906 55.265625 C 37.9375 55.242188 37.980469 55.257812 38.007812 55.316406 C 38.035156 55.375 38.019531 55.421875 37.960938 55.449219 C 37.472656 55.667969 36.914062 55.730469 36.441406 55.730469 Z M 36.441406 55.730469 " fill-opacity="1" fill-rule="nonzero"/><path fill="#8066a3" d="M 36.886719 57.101562 C 36.621094 57.101562 36.355469 57.074219 36.09375 57.019531 C 35.398438 56.867188 34.976562 56.566406 34.957031 56.554688 C 34.90625 56.515625 34.898438 56.46875 34.9375 56.417969 C 34.976562 56.363281 35.023438 56.355469 35.074219 56.394531 C 35.078125 56.398438 35.488281 56.683594 36.148438 56.828125 C 36.753906 56.957031 37.703125 56.988281 38.792969 56.386719 C 38.847656 56.355469 38.894531 56.367188 38.925781 56.425781 C 38.960938 56.484375 38.945312 56.53125 38.886719 56.5625 C 38.382812 56.839844 37.863281 57.011719 37.339844 57.078125 C 37.191406 57.09375 37.039062 57.105469 36.886719 57.101562 Z M 36.886719 57.101562 " fill-opacity="1" fill-rule="nonzero"/><g clip-path="url(#670a7a866b)"><path fill="#f5ebd7" d="M 34.617188 62.875 C 34.621094 63.066406 34.589844 63.257812 34.53125 63.441406 C 33.175781 63 33.496094 62.25 33.675781 61.625 C 33.714844 61.617188 33.753906 61.613281 33.796875 61.613281 C 34.25 61.613281 34.617188 62.179688 34.617188 62.875 Z M 34.617188 62.875 " fill-opacity="1" fill-rule="nonzero"/></g><g clip-path="url(#38026e69be)"><path fill="#f5ebd7" d="M 37.003906 62.898438 C 37.003906 63.21875 36.914062 63.515625 36.765625 63.75 C 36.199219 63.738281 35.664062 63.691406 35.210938 63.609375 C 35.121094 63.59375 35.039062 63.574219 34.960938 63.558594 C 34.871094 63.347656 34.824219 63.125 34.824219 62.898438 C 34.824219 62.140625 35.3125 61.527344 35.914062 61.527344 C 36.515625 61.527344 37.003906 62.140625 37.003906 62.898438 Z M 37.003906 62.898438 " fill-opacity="1" fill-rule="nonzero"/></g><g clip-path="url(#5c249b9b9c)"><path fill="#f5ebd7" d="M 39.277344 63.324219 C 39.277344 63.4375 39.265625 63.546875 39.246094 63.652344 C 38.570312 63.71875 37.84375 63.757812 37.152344 63.757812 C 37.117188 63.617188 37.097656 63.472656 37.097656 63.324219 C 37.097656 62.570312 37.585938 61.957031 38.1875 61.957031 C 38.789062 61.957031 39.277344 62.570312 39.277344 63.324219 Z M 39.277344 63.324219 " fill-opacity="1" fill-rule="nonzero"/></g><g clip-path="url(#1562126aca)"><path fill="#f5ebd7" d="M 53.53125 62.660156 C 53.53125 62.847656 53.503906 63.03125 53.449219 63.210938 C 52.117188 62.832031 52.375 62.246094 52.671875 61.398438 C 52.683594 61.398438 52.695312 61.398438 52.707031 61.398438 C 53.160156 61.398438 53.53125 61.964844 53.53125 62.660156 Z M 53.53125 62.660156 " fill-opacity="1" fill-rule="nonzero"/></g><g clip-path="url(#7d61dedc03)"><path fill="#f5ebd7" d="M 55.917969 62.683594 C 55.917969 62.996094 55.835938 63.28125 55.695312 63.511719 C 54.992188 63.476562 54.351562 63.40625 53.855469 63.308594 C 53.777344 63.105469 53.734375 62.898438 53.738281 62.683594 C 53.738281 61.925781 54.226562 61.3125 54.828125 61.3125 C 55.429688 61.3125 55.917969 61.925781 55.917969 62.683594 Z M 55.917969 62.683594 " fill-opacity="1" fill-rule="nonzero"/></g><g clip-path="url(#dbbed720e4)"><path fill="#f5ebd7" d="M 58.1875 63.109375 C 58.1875 63.226562 58.175781 63.34375 58.152344 63.457031 C 57.457031 63.523438 56.757812 63.542969 56.058594 63.523438 C 56.023438 63.390625 56.007812 63.25 56.007812 63.109375 C 56.007812 62.355469 56.496094 61.742188 57.097656 61.742188 C 57.699219 61.742188 58.1875 62.355469 58.1875 63.109375 Z M 58.1875 63.109375 " fill-opacity="1" fill-rule="nonzero"/></g><g clip-path="url(#3cf4173108)"><path fill="#f5ebd7" d="M 22.476562 62.628906 C 22.476562 62.78125 22.460938 62.929688 22.421875 63.074219 C 21.90625 62.976562 21.539062 62.851562 21.425781 62.691406 C 21.214844 62.394531 21.269531 61.929688 21.40625 61.425781 C 21.484375 61.386719 21.566406 61.367188 21.65625 61.367188 C 22.109375 61.367188 22.476562 61.933594 22.476562 62.628906 Z M 22.476562 62.628906 " fill-opacity="1" fill-rule="nonzero"/></g><g clip-path="url(#e1945a9321)"><path fill="#f5ebd7" d="M 24.863281 62.652344 C 24.863281 62.878906 24.820312 63.097656 24.730469 63.304688 C 24.015625 63.273438 23.320312 63.214844 22.75 63.128906 C 22.707031 62.972656 22.683594 62.816406 22.683594 62.652344 C 22.683594 61.894531 23.171875 61.285156 23.773438 61.285156 C 24.375 61.285156 24.863281 61.894531 24.863281 62.652344 Z M 24.863281 62.652344 " fill-opacity="1" fill-rule="nonzero"/></g><g clip-path="url(#fc88b9ddfd)"><path fill="#f5ebd7" d="M 27.136719 63.082031 C 27.136719 63.167969 27.128906 63.253906 27.117188 63.335938 C 26.472656 63.351562 25.71875 63.347656 24.972656 63.316406 C 24.960938 63.238281 24.957031 63.160156 24.957031 63.082031 C 24.957031 62.324219 25.445312 61.710938 26.046875 61.710938 C 26.648438 61.710938 27.136719 62.324219 27.136719 63.082031 Z M 27.136719 63.082031 " fill-opacity="1" fill-rule="nonzero"/></g><path fill="#8066a3" d="M 57.007812 54.761719 C 56.984375 54.761719 56.96875 54.753906 56.949219 54.742188 C 56.058594 54.140625 55.183594 53.953125 54.347656 54.195312 C 53.726562 54.375 53.367188 54.726562 53.363281 54.730469 C 53.316406 54.777344 53.269531 54.773438 53.222656 54.730469 C 53.175781 54.683594 53.175781 54.636719 53.222656 54.589844 C 53.238281 54.574219 53.621094 54.195312 54.292969 54.003906 C 54.691406 53.890625 55.097656 53.867188 55.507812 53.929688 C 56.023438 54.011719 56.546875 54.230469 57.0625 54.578125 C 57.101562 54.605469 57.117188 54.644531 57.101562 54.691406 C 57.085938 54.738281 57.054688 54.761719 57.007812 54.761719 Z M 57.007812 54.761719 " fill-opacity="1" fill-rule="nonzero"/><path fill="#8066a3" d="M 54.710938 55.730469 C 54.367188 55.730469 54.03125 55.699219 53.695312 55.636719 C 53.625 55.628906 53.59375 55.589844 53.609375 55.519531 C 53.625 55.449219 53.664062 55.425781 53.734375 55.445312 C 53.75 55.445312 55.144531 55.722656 56.144531 55.265625 C 56.203125 55.242188 56.246094 55.257812 56.273438 55.316406 C 56.300781 55.375 56.285156 55.421875 56.226562 55.449219 C 55.738281 55.667969 55.179688 55.730469 54.710938 55.730469 Z M 54.710938 55.730469 " fill-opacity="1" fill-rule="nonzero"/><path fill="#8066a3" d="M 55.152344 57.101562 C 54.886719 57.101562 54.621094 57.074219 54.363281 57.019531 C 53.664062 56.867188 53.242188 56.566406 53.226562 56.554688 C 53.171875 56.515625 53.164062 56.46875 53.203125 56.417969 C 53.242188 56.363281 53.289062 56.355469 53.34375 56.394531 C 53.347656 56.398438 53.753906 56.683594 54.414062 56.828125 C 55.019531 56.957031 55.972656 56.988281 57.058594 56.386719 C 57.117188 56.355469 57.160156 56.367188 57.195312 56.425781 C 57.226562 56.484375 57.210938 56.53125 57.15625 56.5625 C 56.648438 56.839844 56.128906 57.011719 55.609375 57.078125 C 55.457031 57.09375 55.304688 57.105469 55.152344 57.101562 Z M 55.152344 57.101562 " fill-opacity="1" fill-rule="nonzero"/><path fill="#8066a3" d="M 73.507812 53.796875 C 72.832031 54.40625 71.488281 55.128906 69.632812 55.753906 C 67.277344 55.730469 64.136719 55.703125 64.097656 55.703125 C 64.035156 55.703125 61.503906 53.589844 61.503906 53.589844 C 61.503906 53.589844 62.839844 51.234375 63.160156 50.132812 C 63.476562 49.066406 63.703125 47.953125 63.714844 47.890625 C 63.695312 48 63.199219 51.441406 66.355469 52.703125 C 68.828125 53.695312 71.441406 53.929688 73.507812 53.796875 Z M 73.507812 53.796875 " fill-opacity="1" fill-rule="nonzero"/><path fill="#def2e6" d="M 73.640625 53.667969 C 73.011719 54.3125 71.5625 55.113281 69.515625 55.792969 C 66.015625 56.957031 61.566406 56.34375 61.566406 56.34375 C 61.566406 56.34375 61.242188 54.9375 61.335938 54.324219 C 61.425781 53.714844 61.503906 53.589844 61.503906 53.589844 C 61.503906 53.589844 63.960938 55.011719 67.597656 54.828125 C 70.636719 54.675781 72.960938 53.914062 73.640625 53.667969 Z M 73.640625 53.667969 " fill-opacity="1" fill-rule="nonzero"/><path fill="#8066a3" d="M 52.675781 43.542969 C 51.699219 44.730469 50.996094 46.0625 50.574219 47.542969 C 50.152344 49.023438 50.046875 50.523438 50.253906 52.046875 L 49.113281 52.089844 C 48.96875 51.335938 48.625 48.972656 49.945312 46.523438 C 50.808594 44.921875 52.007812 43.992188 52.675781 43.542969 Z M 52.675781 43.542969 " fill-opacity="1" fill-rule="nonzero"/><path fill="#8066a3" d="M 41.195312 45.835938 C 42.140625 46.683594 42.933594 47.65625 43.570312 48.753906 C 44.207031 49.851562 44.65625 51.019531 44.921875 52.257812 L 43.742188 52.261719 C 43.417969 49.914062 42.566406 47.773438 41.195312 45.835938 Z M 41.195312 45.835938 " fill-opacity="1" fill-rule="nonzero"/><path fill="#1b1623" d="M 14.996094 40.964844 C 14.320312 42.085938 13.585938 42.953125 12.808594 43.546875 C 12.183594 44.023438 11.519531 44.335938 10.828125 44.472656 C 10.183594 44.597656 9.605469 44.5625 9.046875 44.527344 C 8.285156 44.476562 7.566406 44.433594 6.785156 44.84375 C 6.34375 45.074219 5.957031 45.414062 5.625 45.851562 C 5.496094 45.742188 5.371094 45.625 5.25 45.503906 C 5.621094 45.027344 6.054688 44.65625 6.546875 44.398438 C 7.457031 43.917969 8.28125 43.972656 9.078125 44.023438 C 9.605469 44.054688 10.148438 44.089844 10.730469 43.976562 C 12.132812 43.699219 13.421875 42.597656 14.5625 40.707031 C 14.597656 40.644531 14.648438 40.609375 14.714844 40.589844 C 14.785156 40.574219 14.847656 40.582031 14.910156 40.621094 C 14.96875 40.65625 15.007812 40.707031 15.023438 40.773438 C 15.042969 40.84375 15.03125 40.90625 14.996094 40.964844 Z M 14.996094 40.964844 " fill-opacity="1" fill-rule="nonzero"/><path fill="#f5ebd7" d="M 47.738281 25.0625 C 48.183594 25.109375 48.609375 25.199219 49.011719 25.339844 C 49.414062 25.476562 49.765625 25.652344 50.0625 25.859375 C 50.359375 26.070312 50.582031 26.300781 50.730469 26.550781 C 50.875 26.800781 50.9375 27.050781 50.910156 27.300781 C 50.886719 27.550781 50.773438 27.785156 50.582031 28 C 50.386719 28.214844 50.121094 28.394531 49.789062 28.539062 C 49.453125 28.683594 49.074219 28.785156 48.652344 28.839844 C 48.230469 28.894531 47.796875 28.898438 47.351562 28.851562 C 46.902344 28.808594 46.480469 28.714844 46.074219 28.578125 C 45.671875 28.4375 45.324219 28.265625 45.027344 28.054688 C 44.726562 27.84375 44.507812 27.617188 44.359375 27.367188 C 44.210938 27.117188 44.152344 26.867188 44.175781 26.617188 C 44.203125 26.363281 44.3125 26.132812 44.507812 25.917969 C 44.703125 25.703125 44.964844 25.523438 45.300781 25.375 C 45.632812 25.230469 46.011719 25.132812 46.433594 25.078125 C 46.855469 25.023438 47.292969 25.019531 47.738281 25.0625 Z M 47.738281 25.0625 " fill-opacity="1" fill-rule="nonzero"/><path fill="#f5ebd7" d="M 45.324219 32.265625 C 45.324219 32.457031 45.285156 32.644531 45.203125 32.824219 C 45.125 33.003906 45.011719 33.160156 44.863281 33.296875 C 44.714844 33.433594 44.542969 33.539062 44.347656 33.613281 C 44.15625 33.6875 43.953125 33.726562 43.742188 33.726562 C 43.535156 33.726562 43.332031 33.6875 43.140625 33.613281 C 42.945312 33.539062 42.773438 33.433594 42.625 33.296875 C 42.476562 33.160156 42.363281 33.003906 42.285156 32.824219 C 42.203125 32.644531 42.164062 32.457031 42.164062 32.265625 C 42.164062 32.070312 42.203125 31.882812 42.285156 31.707031 C 42.363281 31.527344 42.476562 31.367188 42.625 31.230469 C 42.773438 31.09375 42.945312 30.988281 43.140625 30.914062 C 43.332031 30.839844 43.535156 30.804688 43.742188 30.804688 C 43.953125 30.804688 44.15625 30.839844 44.347656 30.914062 C 44.542969 30.988281 44.714844 31.09375 44.863281 31.230469 C 45.011719 31.367188 45.125 31.527344 45.203125 31.707031 C 45.285156 31.882812 45.324219 32.070312 45.324219 32.265625 Z M 45.324219 32.265625 " fill-opacity="1" fill-rule="nonzero"/><path fill="#f5ebd7" d="M 47.164062 34.402344 C 47.207031 34.507812 47.210938 34.621094 47.179688 34.746094 C 47.152344 34.867188 47.085938 34.992188 46.988281 35.117188 C 46.890625 35.242188 46.765625 35.359375 46.613281 35.46875 C 46.460938 35.578125 46.296875 35.667969 46.113281 35.742188 C 45.933594 35.816406 45.75 35.871094 45.566406 35.898438 C 45.382812 35.929688 45.210938 35.933594 45.050781 35.914062 C 44.890625 35.890625 44.757812 35.847656 44.648438 35.78125 C 44.542969 35.714844 44.464844 35.628906 44.421875 35.527344 C 44.378906 35.421875 44.375 35.308594 44.402344 35.1875 C 44.433594 35.0625 44.5 34.9375 44.597656 34.8125 C 44.695312 34.6875 44.820312 34.570312 44.972656 34.460938 C 45.125 34.351562 45.289062 34.261719 45.472656 34.1875 C 45.652344 34.113281 45.835938 34.0625 46.019531 34.03125 C 46.203125 34.003906 46.375 34 46.535156 34.019531 C 46.691406 34.039062 46.828125 34.082031 46.933594 34.148438 C 47.042969 34.214844 47.121094 34.300781 47.164062 34.402344 Z M 47.164062 34.402344 " fill-opacity="1" fill-rule="nonzero"/><path fill="#f5ebd7" d="M 51.558594 31.859375 C 51.558594 32.085938 51.507812 32.300781 51.410156 32.507812 C 51.3125 32.714844 51.175781 32.898438 50.996094 33.058594 C 50.816406 33.21875 50.609375 33.339844 50.371094 33.425781 C 50.136719 33.511719 49.894531 33.554688 49.636719 33.554688 C 49.382812 33.554688 49.140625 33.511719 48.902344 33.425781 C 48.667969 33.339844 48.460938 33.21875 48.28125 33.058594 C 48.101562 32.898438 47.964844 32.714844 47.867188 32.507812 C 47.769531 32.300781 47.71875 32.085938 47.71875 31.859375 C 47.71875 31.632812 47.769531 31.417969 47.867188 31.210938 C 47.964844 31 48.101562 30.816406 48.28125 30.660156 C 48.460938 30.5 48.667969 30.375 48.902344 30.289062 C 49.140625 30.203125 49.382812 30.160156 49.636719 30.160156 C 49.894531 30.160156 50.136719 30.203125 50.371094 30.289062 C 50.609375 30.375 50.816406 30.5 50.996094 30.660156 C 51.175781 30.816406 51.3125 31 51.410156 31.210938 C 51.507812 31.417969 51.558594 31.632812 51.558594 31.859375 Z M 51.558594 31.859375 " fill-opacity="1" fill-rule="nonzero"/><path fill="#f5ebd7" d="M 55.691406 29.34375 C 55.964844 29.535156 56.210938 29.75 56.421875 29.992188 C 56.632812 30.230469 56.792969 30.476562 56.90625 30.726562 C 57.023438 30.976562 57.078125 31.214844 57.078125 31.441406 C 57.078125 31.664062 57.019531 31.859375 56.90625 32.023438 C 56.792969 32.1875 56.628906 32.308594 56.417969 32.386719 C 56.207031 32.464844 55.960938 32.496094 55.6875 32.476562 C 55.410156 32.457031 55.125 32.390625 54.824219 32.277344 C 54.527344 32.164062 54.238281 32.011719 53.964844 31.820312 C 53.6875 31.628906 53.445312 31.414062 53.234375 31.171875 C 53.023438 30.933594 52.859375 30.6875 52.746094 30.4375 C 52.632812 30.1875 52.574219 29.949219 52.574219 29.726562 C 52.574219 29.5 52.632812 29.304688 52.746094 29.140625 C 52.863281 28.976562 53.023438 28.855469 53.234375 28.777344 C 53.445312 28.699219 53.691406 28.667969 53.964844 28.6875 C 54.242188 28.707031 54.53125 28.773438 54.828125 28.886719 C 55.125 29 55.414062 29.15625 55.691406 29.34375 Z M 55.691406 29.34375 " fill-opacity="1" fill-rule="nonzero"/><path fill="#f5ebd7" d="M 59.160156 34.070312 C 59.382812 34.222656 59.542969 34.402344 59.636719 34.609375 C 59.726562 34.8125 59.726562 34.980469 59.636719 35.113281 C 59.542969 35.246094 59.382812 35.304688 59.160156 35.289062 C 58.933594 35.273438 58.710938 35.1875 58.488281 35.035156 C 58.261719 34.878906 58.105469 34.699219 58.011719 34.496094 C 57.917969 34.292969 57.917969 34.121094 58.011719 33.988281 C 58.105469 33.855469 58.265625 33.796875 58.488281 33.8125 C 58.710938 33.828125 58.9375 33.914062 59.160156 34.070312 Z M 59.160156 34.070312 " fill-opacity="1" fill-rule="nonzero"/><path fill="#f5ebd7" d="M 55.148438 33.960938 C 55.148438 34.175781 55.039062 34.355469 54.820312 34.507812 C 54.597656 34.660156 54.332031 34.734375 54.019531 34.734375 C 53.710938 34.734375 53.441406 34.660156 53.222656 34.507812 C 53.003906 34.355469 52.890625 34.175781 52.890625 33.960938 C 52.890625 33.75 53.003906 33.566406 53.222656 33.414062 C 53.441406 33.265625 53.710938 33.191406 54.019531 33.191406 C 54.332031 33.191406 54.597656 33.265625 54.820312 33.414062 C 55.039062 33.566406 55.148438 33.75 55.148438 33.960938 Z M 55.148438 33.960938 " fill-opacity="1" fill-rule="nonzero"/><path fill="#f5ebd7" d="M 50.941406 35.078125 C 50.941406 35.242188 50.886719 35.378906 50.769531 35.496094 C 50.65625 35.609375 50.515625 35.667969 50.351562 35.667969 C 50.1875 35.667969 50.050781 35.609375 49.933594 35.496094 C 49.820312 35.378906 49.761719 35.242188 49.761719 35.078125 C 49.761719 34.914062 49.820312 34.777344 49.933594 34.660156 C 50.050781 34.546875 50.1875 34.488281 50.351562 34.488281 C 50.515625 34.488281 50.65625 34.546875 50.769531 34.660156 C 50.886719 34.777344 50.941406 34.914062 50.941406 35.078125 Z M 50.941406 35.078125 " fill-opacity="1" fill-rule="nonzero"/></svg>